<?xml version="1.0" standalone="no"?>
<!DOCTYPE svg PUBLIC "-//W3C//DTD SVG 20010904//EN"
 "http://www.w3.org/TR/2001/REC-SVG-20010904/DTD/svg10.dtd">
<svg version="1.0" xmlns="http://www.w3.org/2000/svg"
 width="512.000000pt" height="512.000000pt" viewBox="0 0 512.000000 512.000000"
 preserveAspectRatio="xMidYMid meet">

<g transform="translate(0.000000,512.000000) scale(0.100000,-0.100000)"
fill="#000000" stroke="none">
<path d="M2397 4625 c-317 -60 -566 -251 -702 -537 -67 -143 -89 -244 -89
-413 0 -114 4 -156 23 -225 44 -166 118 -303 227 -419 l71 -76 -318 -515 -317
-515 -58 -10 c-113 -21 -196 -82 -244 -180 -33 -69 -34 -199 -2 -265 35 -71
75 -114 144 -150 56 -31 71 -34 143 -35 129 0 226 56 284 164 43 81 51 164 23
245 l-20 59 365 594 c392 637 392 637 360 714 -10 25 -39 55 -91 94 -100 75
-158 143 -207 240 -124 250 -77 539 120 735 308 308 816 228 1021 -160 39 -73
51 -88 90 -108 105 -54 230 19 230 134 0 118 -172 355 -344 473 -197 136 -483
199 -709 156z"/>
<path d="M2460 3984 c-142 -52 -229 -183 -218 -327 13 -152 131 -276 279 -294
l49 -6 327 -531 c440 -716 405 -663 460 -688 58 -26 89 -21 195 31 254 126
540 80 739 -118 251 -252 252 -651 0 -901 -119 -118 -239 -172 -420 -189 -98
-9 -125 -21 -165 -75 -29 -39 -29 -133 0 -172 45 -61 67 -69 177 -68 409 4
774 301 889 723 31 110 31 352 0 462 -103 377 -397 649 -769 714 -152 27 -326
14 -466 -34 l-57 -20 -23 37 c-13 20 -157 254 -320 520 l-297 482 17 33 c28
51 24 188 -7 252 -32 64 -92 124 -155 154 -65 31 -172 38 -235 15z"/>
<path d="M575 2226 c-89 -39 -206 -266 -240 -463 -86 -492 220 -961 714 -1095
103 -28 343 -31 445 -5 187 47 329 129 466 267 129 130 207 265 250 433 l18
72 668 2 669 2 30 -41 c19 -26 55 -55 95 -77 60 -33 71 -36 150 -36 70 0 94 5
135 25 64 31 124 91 155 155 35 72 35 198 0 270 -89 181 -310 239 -477 123
-24 -16 -54 -45 -66 -63 l-22 -34 -772 -3 c-761 -3 -772 -3 -799 -24 -54 -40
-66 -67 -75 -165 -17 -181 -71 -301 -189 -420 -308 -309 -827 -225 -1021 166
-106 215 -86 467 53 662 28 39 33 54 33 103 0 63 -17 95 -67 133 -33 25 -113
32 -153 13z"/>
</g>
</svg>
