<svg xmlns="http://www.w3.org/2000/svg" xmlns:xlink="http://www.w3.org/1999/xlink" width="500" zoomAndPan="magnify" viewBox="0 0 375 374.999991" height="500" preserveAspectRatio="xMidYMid meet" version="1.0"><defs><clipPath id="80b2a97228"><path d="M 3.5625 3.5625 L 371.4375 3.5625 L 371.4375 371.4375 L 3.5625 371.4375 Z M 3.5625 3.5625 " clip-rule="nonzero"/></clipPath><clipPath id="c09f957852"><path d="M 78.5625 3.5625 L 296.4375 3.5625 C 337.859375 3.5625 371.4375 37.140625 371.4375 78.5625 L 371.4375 296.4375 C 371.4375 337.859375 337.859375 371.4375 296.4375 371.4375 L 78.5625 371.4375 C 37.140625 371.4375 3.5625 337.859375 3.5625 296.4375 L 3.5625 78.5625 C 3.5625 37.140625 37.140625 3.5625 78.5625 3.5625 Z M 78.5625 3.5625 " clip-rule="nonzero"/></clipPath><clipPath id="99ba4b1b3c"><path d="M 0.5625 0.5625 L 368.4375 0.5625 L 368.4375 368.4375 L 0.5625 368.4375 Z M 0.5625 0.5625 " clip-rule="nonzero"/></clipPath><clipPath id="d938763107"><path d="M 75.5625 0.5625 L 293.4375 0.5625 C 334.859375 0.5625 368.4375 34.140625 368.4375 75.5625 L 368.4375 293.4375 C 368.4375 334.859375 334.859375 368.4375 293.4375 368.4375 L 75.5625 368.4375 C 34.140625 368.4375 0.5625 334.859375 0.5625 293.4375 L 0.5625 75.5625 C 0.5625 34.140625 34.140625 0.5625 75.5625 0.5625 Z M 75.5625 0.5625 " clip-rule="nonzero"/></clipPath><clipPath id="94af76ad35"><rect x="0" width="369" y="0" height="369"/></clipPath></defs><g clip-path="url(#80b2a97228)"><g clip-path="url(#c09f957852)"><g transform="matrix(1, 0, 0, 1, 3, 3)"><g clip-path="url(#94af76ad35)"><g clip-path="url(#99ba4b1b3c)"><g clip-path="url(#d938763107)"><path fill="#ffffff" d="M 0.5625 0.5625 L 368.4375 0.5625 L 368.4375 368.4375 L 0.5625 368.4375 Z M 0.5625 0.5625 " fill-opacity="1" fill-rule="nonzero"/></g></g></g></g></g></g><path fill="#000000" d="M 175.042969 24.105469 C 150.851562 28.683594 131.847656 43.261719 121.46875 65.085938 C 116.355469 76 114.675781 83.707031 114.675781 96.605469 C 114.675781 105.308594 114.980469 108.511719 116.433594 113.777344 C 119.789062 126.445312 125.4375 136.902344 133.757812 145.753906 L 139.175781 151.554688 L 114.90625 190.859375 L 90.710938 230.164062 L 86.285156 230.925781 C 77.664062 232.53125 71.328125 237.183594 67.664062 244.664062 C 65.144531 249.929688 65.070312 259.851562 67.511719 264.886719 C 70.183594 270.308594 73.234375 273.589844 78.5 276.335938 C 82.777344 278.703125 83.921875 278.929688 89.414062 279.007812 C 99.261719 279.007812 106.664062 274.734375 111.089844 266.492188 C 114.371094 260.308594 114.980469 253.976562 112.84375 247.792969 L 111.320312 243.289062 L 139.175781 197.957031 C 169.089844 149.34375 169.089844 149.34375 166.648438 143.464844 C 165.886719 141.558594 163.671875 139.269531 159.703125 136.292969 C 152.074219 130.566406 147.644531 125.378906 143.90625 117.976562 C 134.441406 98.894531 138.03125 76.839844 153.066406 61.882812 C 176.570312 38.375 215.339844 44.480469 230.984375 74.09375 C 233.960938 79.664062 234.878906 80.808594 237.855469 82.335938 C 245.867188 86.457031 255.40625 80.886719 255.40625 72.109375 C 255.40625 63.101562 242.28125 45.015625 229.152344 36.007812 C 214.121094 25.628906 192.292969 20.824219 175.042969 24.105469 Z M 175.042969 24.105469 " fill-opacity="1" fill-rule="nonzero"/><path fill="#000000" d="M 179.851562 73.023438 C 169.015625 76.992188 162.375 86.992188 163.214844 97.980469 C 164.207031 109.582031 173.214844 119.042969 184.507812 120.417969 L 188.246094 120.875 L 213.203125 161.402344 C 246.785156 216.042969 244.113281 212 248.308594 213.90625 C 252.738281 215.890625 255.101562 215.511719 263.191406 211.542969 C 282.578125 201.925781 304.402344 205.4375 319.589844 220.546875 C 338.746094 239.78125 338.824219 270.230469 319.589844 289.308594 C 310.507812 298.316406 301.351562 302.4375 287.539062 303.734375 C 280.058594 304.421875 277.996094 305.335938 274.945312 309.457031 C 272.730469 312.433594 272.730469 319.609375 274.945312 322.585938 C 278.378906 327.242188 280.058594 327.851562 288.453125 327.773438 C 319.667969 327.46875 347.523438 304.804688 356.300781 272.597656 C 358.667969 264.203125 358.667969 245.734375 356.300781 237.335938 C 348.441406 208.566406 326.003906 187.808594 297.613281 182.847656 C 286.011719 180.785156 272.730469 181.777344 262.046875 185.441406 L 257.699219 186.96875 L 255.941406 184.144531 C 254.949219 182.617188 243.960938 164.757812 231.519531 144.457031 L 208.855469 107.671875 L 210.152344 105.152344 C 212.289062 101.261719 211.984375 90.804688 209.617188 85.921875 C 207.175781 81.039062 202.59375 76.457031 197.789062 74.167969 C 192.828125 71.804688 184.660156 71.269531 179.851562 73.023438 Z M 179.851562 73.023438 " fill-opacity="1" fill-rule="nonzero"/><path fill="#000000" d="M 35.992188 207.191406 C 29.199219 210.167969 20.269531 227.492188 17.675781 242.527344 C 11.113281 280.074219 34.464844 315.867188 72.167969 326.09375 C 80.027344 328.234375 98.34375 328.460938 106.128906 326.476562 C 120.402344 322.890625 131.238281 316.632812 141.695312 306.101562 C 151.539062 296.179688 157.492188 285.875 160.773438 273.054688 L 162.148438 267.558594 L 213.128906 267.40625 L 264.183594 267.253906 L 266.472656 270.382812 C 267.925781 272.367188 270.671875 274.582031 273.722656 276.261719 C 278.304688 278.777344 279.144531 279.007812 285.171875 279.007812 C 290.515625 279.007812 292.347656 278.625 295.476562 277.097656 C 300.359375 274.734375 304.9375 270.15625 307.304688 265.269531 C 309.976562 259.773438 309.976562 250.160156 307.304688 244.664062 C 300.511719 230.851562 283.644531 226.425781 270.902344 235.277344 C 269.070312 236.496094 266.777344 238.710938 265.863281 240.085938 L 264.183594 242.679688 L 205.265625 242.910156 C 147.1875 243.136719 146.347656 243.136719 144.289062 244.742188 C 140.167969 247.792969 139.25 249.855469 138.5625 257.332031 C 137.265625 271.148438 133.144531 280.304688 124.140625 289.386719 C 100.632812 312.96875 61.023438 306.558594 46.21875 276.71875 C 38.128906 260.308594 39.65625 241.078125 50.265625 226.195312 C 52.402344 223.21875 52.78125 222.074219 52.78125 218.335938 C 52.78125 213.527344 51.484375 211.082031 47.667969 208.183594 C 45.152344 206.277344 39.046875 205.742188 35.992188 207.191406 Z M 35.992188 207.191406 " fill-opacity="1" fill-rule="nonzero"/></svg>